<svg width="1200" height="900" viewBox="0 0 1200 900" fill="none" xmlns="http://www.w3.org/2000/svg">
  <defs>
    <linearGradient id="bg" x1="120" y1="90" x2="1080" y2="810" gradientUnits="userSpaceOnUse">
      <stop offset="0" stop-color="#020617"/>
      <stop offset="0.55" stop-color="#0F172A"/>
      <stop offset="1" stop-color="#111827"/>
    </linearGradient>
    <linearGradient id="accent" x1="200" y1="170" x2="980" y2="760" gradientUnits="userSpaceOnUse">
      <stop offset="0" stop-color="#22C55E"/>
      <stop offset="0.5" stop-color="#06B6D4"/>
      <stop offset="1" stop-color="#6366F1"/>
    </linearGradient>
    <filter id="blur" x="0" y="0" width="1200" height="900" filterUnits="userSpaceOnUse">
      <feGaussianBlur stdDeviation="40"/>
    </filter>
  </defs>

  <rect width="1200" height="900" rx="48" fill="url(#bg)"/>
  <circle cx="250" cy="190" r="150" fill="#22C55E" fill-opacity="0.16" filter="url(#blur)"/>
  <circle cx="980" cy="220" r="170" fill="#6366F1" fill-opacity="0.18" filter="url(#blur)"/>
  <circle cx="940" cy="720" r="190" fill="#06B6D4" fill-opacity="0.15" filter="url(#blur)"/>

  <rect x="150" y="140" width="900" height="620" rx="36" fill="white" fill-opacity="0.04" stroke="white" stroke-opacity="0.1"/>
  <rect x="200" y="190" width="380" height="520" rx="28" fill="white" fill-opacity="0.05" stroke="url(#accent)" stroke-opacity="0.65"/>
  <rect x="635" y="190" width="365" height="150" rx="28" fill="white" fill-opacity="0.05" stroke="white" stroke-opacity="0.08"/>
  <rect x="635" y="370" width="365" height="150" rx="28" fill="white" fill-opacity="0.05" stroke="white" stroke-opacity="0.08"/>
  <rect x="635" y="550" width="365" height="160" rx="28" fill="white" fill-opacity="0.05" stroke="white" stroke-opacity="0.08"/>

  <rect x="250" y="250" width="130" height="130" rx="26" fill="url(#accent)" fill-opacity="0.22" stroke="url(#accent)" stroke-opacity="0.7"/>
  <path d="M288 285H346L374 313V372H288V285Z" stroke="white" stroke-opacity="0.9" stroke-width="8" stroke-linejoin="round"/>
  <path d="M346 285V313H374" stroke="white" stroke-opacity="0.9" stroke-width="8" stroke-linejoin="round"/>
  <path d="M308 332H354" stroke="#22C55E" stroke-width="8" stroke-linecap="round"/>
  <path d="M308 354H336" stroke="#06B6D4" stroke-width="8" stroke-linecap="round"/>

  <text x="250" y="475" fill="white" font-family="Inter, Arial, sans-serif" font-size="54" font-weight="700">DocXtract</text>
  <text x="250" y="525" fill="#C7D2FE" font-family="Inter, Arial, sans-serif" font-size="22" font-weight="500">AI document intelligence</text>
  <text x="250" y="575" fill="#94A3B8" font-family="Inter, Arial, sans-serif" font-size="20">Summarize. Chat. Compare. Quiz.</text>
  <text x="250" y="610" fill="#94A3B8" font-family="Inter, Arial, sans-serif" font-size="20">Turn PDFs into learning tools.</text>

  <text x="682" y="245" fill="white" font-family="Inter, Arial, sans-serif" font-size="26" font-weight="700">Summarization</text>
  <text x="682" y="285" fill="#CBD5E1" font-family="Inter, Arial, sans-serif" font-size="18">Extract key ideas instantly from long PDFs.</text>

  <text x="682" y="425" fill="white" font-family="Inter, Arial, sans-serif" font-size="26" font-weight="700">Document Chat</text>
  <text x="682" y="465" fill="#CBD5E1" font-family="Inter, Arial, sans-serif" font-size="18">Ask questions and get grounded answers.</text>

  <text x="682" y="605" fill="white" font-family="Inter, Arial, sans-serif" font-size="26" font-weight="700">Quizzes + Flashcards</text>
  <text x="682" y="645" fill="#CBD5E1" font-family="Inter, Arial, sans-serif" font-size="18">Reinforce knowledge and retention faster.</text>
</svg>